HIERARCHY
ROOT joint_0
{
	OFFSET 0.000000 0.000000 0.000000
	CHANNELS 6 Xposition Yposition Zposition Zrotation Yrotation Xrotation 
	JOINT joint_1
	{
		OFFSET 0.587158 0.057678 95.682007
		CHANNELS 3 Zrotation Yrotation Xrotation
		JOINT joint_2
		{
			OFFSET -7.116699 -0.219910 87.157959
			CHANNELS 3 Zrotation Yrotation Xrotation
			JOINT joint_3
			{
				OFFSET -5.892822 -0.290222 87.151001
				CHANNELS 3 Zrotation Yrotation Xrotation
				JOINT joint_4
				{
					OFFSET 5.544678 -0.099609 123.768066
					CHANNELS 3 Zrotation Yrotation Xrotation
					JOINT joint_5
					{
						OFFSET 41.981201 4.519775 84.257935
						CHANNELS 3 Zrotation Yrotation Xrotation
						End Site
						{
							OFFSET 0.000000 0.000000 0.000000
						}
					}
				}
				JOINT joint_6
				{
					OFFSET 3.940918 -26.976501 69.308105
					CHANNELS 3 Zrotation Yrotation Xrotation
					JOINT joint_7
					{
						OFFSET 4.776123 -152.592468 -16.842041
						CHANNELS 3 Zrotation Yrotation Xrotation
						JOINT joint_8
						{
							OFFSET 54.421875 -30.424072 -248.864014
							CHANNELS 3 Zrotation Yrotation Xrotation
							JOINT joint_9
							{
								OFFSET 42.120117 -33.387878 -236.524963
								CHANNELS 3 Zrotation Yrotation Xrotation
								End Site
								{
									OFFSET 0.000000 0.000000 0.000000
								}
							}
						}
					}
				}
				JOINT joint_10
				{
					OFFSET 2.312012 26.904114 69.425049
					CHANNELS 3 Zrotation Yrotation Xrotation
					JOINT joint_11
					{
						OFFSET 0.971436 152.197815 -20.626953
						CHANNELS 3 Zrotation Yrotation Xrotation
						JOINT joint_12
						{
							OFFSET 49.954102 28.991455 -249.970093
							CHANNELS 3 Zrotation Yrotation Xrotation
							JOINT joint_13
							{
								OFFSET 48.146973 19.598389 -236.919922
								CHANNELS 3 Zrotation Yrotation Xrotation
								End Site
								{
									OFFSET 0.000000 0.000000 0.000000
								}
							}
						}
					}
				}
			}
		}
	}
	JOINT joint_14
	{
		OFFSET 16.305664 -89.442932 -108.224976
		CHANNELS 3 Zrotation Yrotation Xrotation
		JOINT joint_15
		{
			OFFSET -22.282471 13.437134 -412.904968
			CHANNELS 3 Zrotation Yrotation Xrotation
			JOINT joint_16
			{
				OFFSET -45.426025 14.484802 -445.892029
				CHANNELS 3 Zrotation Yrotation Xrotation
				JOINT joint_17
				{
					OFFSET 173.389404 -9.944031 -76.473001
					CHANNELS 3 Zrotation Yrotation Xrotation
					End Site
					{
						OFFSET 0.000000 0.000000 0.000000
					}
				}
			}
		}
	}
	JOINT joint_18
	{
		OFFSET 13.392822 89.408875 -108.653992
		CHANNELS 3 Zrotation Yrotation Xrotation
		JOINT joint_19
		{
			OFFSET -29.032959 24.483521 -411.977966
			CHANNELS 3 Zrotation Yrotation Xrotation
			JOINT joint_20
			{
				OFFSET -30.530029 28.986328 -446.453018
				CHANNELS 3 Zrotation Yrotation Xrotation
				JOINT joint_21
				{
					OFFSET 170.330078 33.400757 -76.698997
					CHANNELS 3 Zrotation Yrotation Xrotation
					End Site
					{
						OFFSET 0.000000 0.000000 0.000000
					}
				}
			}
		}
	}
}
MOTION
Frames: 15
Frame Time: 0.016667
-2285.665527 908.639954 1060.241943 -6.542456 -2.147038 -0.030907 0.314529 1.691527 1.834360 0.119477 -0.363448 -0.423867 0.168003 0.374526 0.261537 -0.037349 2.662034 -0.187665 0.000000 0.000000 0.000000 -0.020152 0.782204 0.265401 -0.075686 0.766583 -0.427673 -0.247549 -0.703931 -2.011092 0.000000 0.000000 0.000000 2.046417 1.315159 -0.735454 0.121227 1.049689 -0.085188 -0.020787 -0.507378 0.108452 0.000000 0.000000 0.000000 -0.985828 1.679834 -3.940595 -1.265812 0.654745 -0.314115 -1.267442 -0.024359 -0.555799 0.000000 0.000000 0.000000 0.438355 2.555604 0.389371 0.154218 -0.725781 1.541712 0.393410 1.311522 -0.080341 0.000000 0.000000 0.000000 
-2285.507812 908.465149 1060.177002 -6.567781 -2.131115 -0.027963 0.306056 1.633004 1.834073 0.111844 -0.328183 -0.421143 0.160159 0.347393 0.263751 -0.027356 2.654092 -0.205914 0.000000 0.000000 0.000000 -0.294394 0.718398 0.259046 -0.048518 0.672363 -0.348066 -0.279720 -0.538223 -2.060670 0.000000 0.000000 0.000000 2.107076 1.290123 -0.812274 0.125640 1.016079 -0.016539 0.008849 -0.337512 0.184047 0.000000 0.000000 0.000000 -0.983518 1.673176 -3.933378 -1.262820 0.646324 -0.317584 -1.264378 -0.014101 -0.553883 0.000000 0.000000 0.000000 0.449648 2.560600 0.376973 0.161189 -0.738938 1.575415 0.403007 1.310949 -0.075910 0.000000 0.000000 0.000000 
-2285.365234 908.296936 1060.100952 -6.595162 -2.119344 -0.023084 0.300836 1.579881 1.831735 0.107649 -0.289109 -0.417861 0.155696 0.318117 0.265795 -0.017895 2.638319 -0.222377 0.000000 0.000000 0.000000 -0.570320 0.652996 0.255791 -0.023346 0.576165 -0.278668 -0.312230 -0.370118 -2.110461 0.000000 0.000000 0.000000 2.154717 1.263698 -0.891222 0.131912 0.983026 0.060288 0.038153 -0.169494 0.258277 0.000000 0.000000 0.000000 -0.981047 1.668377 -3.927513 -1.259670 0.639842 -0.322804 -1.261301 0.000402 -0.551717 0.000000 0.000000 0.000000 0.462508 2.569399 0.357471 0.168389 -0.752093 1.617550 0.413457 1.311951 -0.071406 0.000000 0.000000 0.000000 
-2285.442627 908.122742 1060.017944 -6.607912 -2.110580 -0.020124 0.342393 1.636181 1.829610 0.147704 -0.303152 -0.432244 0.197585 0.339775 0.275439 -0.040830 2.601852 -0.175728 0.000000 0.000000 0.000000 0.088163 0.790581 0.334465 -0.124455 0.783440 -0.632794 -0.244158 -0.688835 -1.977183 0.000000 0.000000 0.000000 1.958897 1.322530 -0.831572 0.163073 1.072653 0.132079 0.011054 -0.371783 0.208961 0.000000 0.000000 0.000000 -0.983905 1.658245 -3.913188 -1.260635 0.626805 -0.336434 -1.262555 0.025457 -0.550837 0.000000 0.000000 0.000000 0.470770 2.559163 0.339192 0.172749 -0.753908 1.663847 0.421251 1.320102 -0.069502 0.000000 0.000000 0.000000 
-2286.117920 907.907532 1059.873047 -6.590333 -2.141265 -0.021530 0.478430 1.810801 1.798300 0.283373 -0.425768 -0.449963 0.335164 0.466712 0.271426 -0.127345 2.620580 -0.010794 0.000000 0.000000 0.000000 2.699472 1.353681 0.561825 -0.484306 1.628476 -1.832169 0.010688 -1.876469 -1.477125 0.000000 0.000000 0.000000 1.333985 1.513251 -0.393720 0.213372 1.358072 0.102707 -0.095591 -1.056033 -0.036965 0.000000 0.000000 0.000000 -0.997711 1.656794 -3.879587 -1.270284 0.619318 -0.363326 -1.273630 0.053341 -0.554096 0.000000 0.000000 0.000000 0.467577 2.533423 0.332945 0.169681 -0.723122 1.709415 0.420758 1.340880 -0.073810 0.000000 0.000000 0.000000 
-2287.013428 907.686401 1059.720947 -6.557794 -2.175087 -0.024865 0.657747 2.096766 1.768012 0.465482 -0.608923 -0.413926 0.512750 0.658814 0.224691 -0.194078 2.604190 0.122786 0.000000 0.000000 0.000000 6.321478 2.189302 0.884646 -0.977717 2.859329 -3.415778 0.353844 -3.658628 -0.919338 0.000000 0.000000 0.000000 0.476485 1.788857 0.141821 0.301458 1.766261 0.115798 -0.259303 -2.116627 -0.424248 0.000000 0.000000 0.000000 -1.016709 1.650108 -3.837809 -1.283995 0.605437 -0.398386 -1.288975 0.091714 -0.558619 0.000000 0.000000 0.000000 0.459901 2.488506 0.327753 0.163880 -0.680764 1.759350 0.417693 1.368704 -0.080662 0.000000 0.000000 0.000000 
-2287.203125 907.559204 1059.727051 -6.543211 -2.106265 -0.026194 0.786385 2.583567 1.836805 0.585823 -0.752188 -0.371009 0.627808 0.812880 0.184711 -0.174044 2.289386 0.114964 0.000000 0.000000 0.000000 8.855615 2.848048 1.154746 -1.326646 3.796248 -4.474801 0.600697 -5.384836 -0.778614 0.000000 0.000000 0.000000 -0.302929 2.096588 0.176978 0.481366 2.202432 0.468401 -0.456880 -3.599071 -0.840710 0.000000 0.000000 0.000000 -1.028848 1.593967 -3.812348 -1.291919 0.540512 -0.431716 -1.295982 0.166551 -0.557378 0.000000 0.000000 0.000000 0.463409 2.396277 0.297727 0.166659 -0.679454 1.825526 0.426049 1.391090 -0.081300 0.000000 0.000000 0.000000 
-2286.373535 907.811646 1059.842041 -6.589024 -2.013049 -0.033607 0.790647 3.642726 2.160958 0.541288 -0.832272 -0.429378 0.589818 0.883918 0.219217 -0.030949 1.381014 -0.081125 0.000000 0.000000 0.000000 9.465821 2.964056 1.411277 -1.393796 3.969411 -4.765026 0.643388 -5.994948 -0.985903 0.000000 0.000000 0.000000 -0.950871 2.391895 -0.996623 0.811729 2.619167 1.509705 -0.584153 -5.119174 -0.945696 0.000000 0.000000 0.000000 -1.016358 1.708153 -3.781139 -1.287173 0.197422 -0.524829 -1.285661 0.346501 -0.542444 0.000000 0.000000 0.000000 0.503051 2.425378 0.141448 0.166918 -0.818780 2.078486 0.450565 1.397276 -0.071499 0.000000 0.000000 0.000000 
-2284.838379 908.158020 1060.114990 -6.652562 -1.818647 -0.036521 0.721068 4.907568 2.567918 0.398675 -0.855876 -0.542614 0.460413 0.875849 0.297982 0.164452 0.147195 -0.342207 0.000000 0.000000 0.000000 9.104354 2.855083 1.642452 -1.298558 3.804561 -4.652175 0.639294 -6.487464 -1.436427 0.000000 0.000000 0.000000 -1.506795 2.709066 -2.613268 1.244866 3.068068 2.836268 -0.717206 -7.056331 -1.023569 0.000000 0.000000 0.000000 -0.996133 1.774721 -3.770030 -1.276205 -0.197235 -0.615039 -1.267330 0.565569 -0.521736 0.000000 0.000000 0.000000 0.554128 2.408730 -0.043182 0.175426 -0.999983 2.348268 0.486271 1.402256 -0.056426 0.000000 0.000000 0.000000 
-2282.612061 907.846741 1060.863037 -6.639481 -1.189816 -0.006006 0.599645 5.374649 2.685409 0.238945 -0.834183 -0.596471 0.306859 0.811090 0.345533 0.296839 -0.730541 -0.507342 0.000000 0.000000 0.000000 8.543369 3.017299 1.556244 -1.110702 3.901524 -4.152825 0.830670 -9.200972 -2.405783 0.000000 0.000000 0.000000 -1.507578 3.174986 -3.090036 1.722306 3.603800 3.604008 -1.054718 -10.658138 -1.847393 0.000000 0.000000 0.000000 -1.010511 1.098321 -3.871493 -1.270293 -0.008077 -0.507826 -1.254058 0.642060 -0.511542 0.000000 0.000000 0.000000 0.558027 1.821377 0.019111 0.236503 -0.979217 2.137959 0.533821 1.426837 -0.039789 0.000000 0.000000 0.000000 
-2279.437256 906.147522 1062.215942 -6.310891 0.370649 0.132699 0.328138 4.144314 2.169684 0.032677 -0.729417 -0.497723 0.091748 0.718575 0.339961 0.297114 -0.838630 -0.496086 0.000000 0.000000 0.000000 7.888745 3.675710 1.593883 -0.977341 4.479608 -3.864643 1.391306 -15.352264 -3.710880 0.000000 0.000000 0.000000 -0.426864 3.873584 -2.020274 2.356908 4.222211 3.957439 -1.762696 -16.394292 -4.480046 0.000000 0.000000 0.000000 -1.117324 -0.807368 -4.138326 -1.320187 0.726697 -0.164382 -1.290048 0.611157 -0.529112 0.000000 0.000000 0.000000 0.412008 0.094575 0.559124 0.333115 -0.762238 0.949124 0.550528 1.552524 -0.056752 0.000000 0.000000 0.000000 
-2275.570557 903.789673 1064.042969 -5.861026 2.388385 0.305875 -0.006521 2.065660 1.427071 -0.192257 -0.553607 -0.379031 -0.144523 0.575920 0.310426 0.227157 -0.590247 -0.385591 0.000000 0.000000 0.000000 7.012228 4.555214 1.692381 -0.787338 5.243280 -3.752049 2.201418 -23.595238 -5.233440 0.000000 0.000000 0.000000 1.279975 4.623374 -0.189697 3.129941 4.805273 4.268960 -2.635291 -23.481624 -8.106300 0.000000 0.000000 0.000000 -1.250063 -3.474200 -4.505141 -1.383952 2.028877 0.375535 -1.345715 0.524542 -0.558272 0.000000 0.000000 0.000000 0.211057 -2.256079 1.365795 0.475621 -0.311222 -0.721506 0.568132 1.793597 -0.096077 0.000000 0.000000 0.000000 
-2271.802734 902.215393 1066.270996 -5.953583 3.751807 0.338256 -0.115958 0.743272 1.083332 -0.249264 -0.453323 -0.387628 -0.204796 0.429972 0.265728 0.189322 -0.485133 -0.321769 0.000000 0.000000 0.000000 6.421291 5.520256 0.913830 -0.285463 6.141806 -2.883222 3.039027 -33.475427 -7.757125 0.000000 0.000000 0.000000 2.658800 5.346509 1.921842 3.991248 5.395471 4.301640 -3.317296 -32.289391 -10.811889 0.000000 0.000000 0.000000 -1.223842 -6.210136 -4.941617 -1.287908 4.667359 1.200857 -1.299076 0.244171 -0.553332 0.000000 0.000000 0.000000 0.210257 -4.087270 1.984556 0.767204 0.632254 -1.862767 0.724536 1.962517 -0.059018 0.000000 0.000000 0.000000 
-2268.842773 902.296021 1069.180054 -7.154264 3.992605 0.242493 0.217633 0.801757 1.150392 0.073743 -0.411314 -0.417938 0.113734 0.339838 0.188143 0.237997 -0.746023 -0.387357 0.000000 0.000000 0.000000 6.445468 6.575990 -0.693389 0.811770 7.191768 -0.954674 3.783775 -46.699899 -12.903557 0.000000 0.000000 0.000000 3.126806 6.130922 3.663095 5.117028 6.122527 4.092735 -3.479096 -44.724302 -10.953465 0.000000 0.000000 0.000000 -0.904485 -9.185461 -5.560125 -0.878063 9.676901 2.417282 -1.126374 -0.177673 -0.500033 0.000000 0.000000 0.000000 0.611111 -5.056802 2.039069 1.376465 2.450417 -1.976336 1.186357 1.919391 0.156572 0.000000 0.000000 0.000000 
-2265.983154 903.161194 1072.489990 -8.930298 3.681155 0.254963 0.787299 1.399520 1.053750 0.618150 -0.343522 -0.297170 0.640384 0.288445 0.103912 0.308960 -1.148645 -0.476888 0.000000 0.000000 0.000000 6.657057 7.373636 -2.188587 2.398226 7.927035 0.461546 4.655941 -61.804814 -18.933126 0.000000 0.000000 0.000000 3.106241 6.633983 4.801469 6.367071 6.488054 4.279581 -3.229664 -58.494546 -9.561672 0.000000 0.000000 0.000000 -0.287014 -12.394415 -6.425602 -0.147299 15.985978 3.795778 -0.907273 -0.029958 -0.391279 0.000000 0.000000 0.000000 1.218888 -5.628060 1.624891 2.165513 4.748090 -1.533598 1.830143 1.949422 0.437525 0.000000 0.000000 0.000000 
